<svg xmlns="http://www.w3.org/2000/svg" width="53.204" height="64" viewBox="0 0 53.204 64">
  <g id="Group_6601" data-name="Group 6601" transform="translate(-26 -69)">
    <path id="Path_11955" data-name="Path 11955" d="M26,133v0Z" fill="#2f2f2f"/>
    <path id="Path_11956" data-name="Path 11956" d="M34.763,651.829v-.208a1.057,1.057,0,0,0,.476-.1.511.511,0,0,0,.217-.481v-3.974a.5.5,0,0,0-.224-.481,1.155,1.155,0,0,0-.468-.1v-.208h4.49v1.654h-.19a1.8,1.8,0,0,0-.5-1.085,2.11,2.11,0,0,0-1.3-.292.833.833,0,0,0-.455.078.387.387,0,0,0-.1.31v1.9a1.174,1.174,0,0,0,.9-.255,2.01,2.01,0,0,0,.362-.959h.2v2.772h-.2a1.817,1.817,0,0,0-.34-.987,1.2,1.2,0,0,0-.923-.287v1.987a.416.416,0,0,0,.128.354.971.971,0,0,0,.523.094,2.208,2.208,0,0,0,1.217-.3,2.506,2.506,0,0,0,.837-1.142h.217l-.316,1.706Z" transform="translate(-7.908 -520.966)" fill="#2f2f2f"/>
    <path id="Path_11957" data-name="Path 11957" d="M88.041,667.08a.561.561,0,0,0,.314-.122.517.517,0,0,0,.1-.375v-2.412a.553.553,0,0,0-.081-.347.525.525,0,0,0-.333-.129v-.2h1.476v.589a1.636,1.636,0,0,1,.474-.49,1.113,1.113,0,0,1,.637-.195,1.062,1.062,0,0,1,.778.272,1.326,1.326,0,0,1,.276.957v1.983a.5.5,0,0,0,.089.356.563.563,0,0,0,.3.108v.2h-1.83v-.2a.583.583,0,0,0,.285-.12.523.523,0,0,0,.076-.344v-1.987a1.257,1.257,0,0,0-.053-.42.353.353,0,0,0-.362-.252.541.541,0,0,0-.371.154,1.364,1.364,0,0,0-.261.311v2.2a.52.52,0,0,0,.076.344.584.584,0,0,0,.285.12v.2H88.041v-.2Z" transform="translate(-55.988 -536.413)" fill="#2f2f2f"/>
    <path id="Path_11958" data-name="Path 11958" d="M133.649,648.519a1.306,1.306,0,0,1,1.056-.563.962.962,0,0,1,.548.16,2.088,2.088,0,0,1,.373.345v-1.5q0-.311-.114-.386a1.067,1.067,0,0,0-.472-.091v-.2h1.678v4.722a.517.517,0,0,0,.091.352.563.563,0,0,0,.358.121v.188q-.654.069-.845.1t-.67.174V651.4a2.113,2.113,0,0,1-.4.357,1.14,1.14,0,0,1-.624.184,1.258,1.258,0,0,1-.993-.509,2.1,2.1,0,0,1-.422-1.382,2.432,2.432,0,0,1,.439-1.536Zm1.776,2.726a.709.709,0,0,0,.2-.332v-1.995a.563.563,0,0,0-.172-.3.575.575,0,0,0-.454-.2q-.416,0-.565.6a4.038,4.038,0,0,0-.08.918,4.442,4.442,0,0,0,.076.953q.141.58.542.581a.585.585,0,0,0,.452-.236Z" transform="translate(-96.751 -520.966)" fill="#2f2f2f"/>
    <path id="Path_11959" data-name="Path 11959" d="M178.36,664.391v2.784a.87.87,0,0,0,.057.365.391.391,0,0,0,.392.2.633.633,0,0,0,.365-.124,1.737,1.737,0,0,0,.259-.228v-2.327a.525.525,0,0,0-.1-.361.574.574,0,0,0-.39-.115v-.2H180.5v2.956a.518.518,0,0,0,.091.352.564.564,0,0,0,.358.121v.188q-.723.073-.912.106a5.16,5.16,0,0,0-.6.17v-.541a2.826,2.826,0,0,1-.461.356,1.314,1.314,0,0,1-.666.184,1.124,1.124,0,0,1-.7-.252,1.074,1.074,0,0,1-.325-.9v-2.071a.513.513,0,0,0-.08-.344.65.65,0,0,0-.309-.133v-.2Z" transform="translate(-136.17 -537.304)" fill="#2f2f2f"/>
    <path id="Path_11960" data-name="Path 11960" d="M221.477,667.08a.552.552,0,0,0,.312-.112.475.475,0,0,0,.1-.324l.007-.24v-2.231a.382.382,0,0,0-.414-.477v-.2h1.476v.645a2.913,2.913,0,0,1,.492-.541.863.863,0,0,1,.564-.2.657.657,0,0,1,.433.162.666.666,0,0,1,.057.871.445.445,0,0,1-.353.156.525.525,0,0,1-.429-.244c-.121-.163-.205-.244-.254-.244a.426.426,0,0,0-.314.2.924.924,0,0,0-.158.58v1.553c0,.271.037.44.112.508a.817.817,0,0,0,.447.134v.2h-2.074v-.2Z" transform="translate(-176.406 -536.413)" fill="#2f2f2f"/>
    <path id="Path_11961" data-name="Path 11961" d="M256.771,650.484a.563.563,0,0,0,.282-.108.525.525,0,0,0,.114-.388v-2.412a.536.536,0,0,0-.08-.341.565.565,0,0,0-.316-.135v-.2h1.5v3.116a.523.523,0,0,0,.076.344.584.584,0,0,0,.285.12v.2h-1.857v-.2Zm.519-5.286a.581.581,0,0,1,.852,0,.663.663,0,0,1,0,.9.58.58,0,0,1-.852,0,.663.663,0,0,1,0-.9Z" transform="translate(-208.257 -519.816)" fill="#2f2f2f"/>
    <path id="Path_11962" data-name="Path 11962" d="M278.969,667.08a.563.563,0,0,0,.314-.122.515.515,0,0,0,.1-.375v-2.412a.55.55,0,0,0-.082-.347.521.521,0,0,0-.333-.129v-.2h1.476v.589a1.642,1.642,0,0,1,.473-.49,1.115,1.115,0,0,1,.638-.195,1.061,1.061,0,0,1,.778.272,1.326,1.326,0,0,1,.276.957v1.983a.5.5,0,0,0,.089.356.564.564,0,0,0,.3.108v.2h-1.83v-.2a.584.584,0,0,0,.286-.12.522.522,0,0,0,.076-.344v-1.987a1.258,1.258,0,0,0-.053-.42.353.353,0,0,0-.361-.252.542.542,0,0,0-.371.154,1.354,1.354,0,0,0-.26.311v2.2a.523.523,0,0,0,.076.344.583.583,0,0,0,.285.12v.2h-1.876v-.2Z" transform="translate(-228.289 -536.413)" fill="#2f2f2f"/>
    <path id="Path_11963" data-name="Path 11963" d="M324.078,667.863a.715.715,0,0,1,.481-.242v-.056a1.089,1.089,0,0,1-.331-.188.6.6,0,0,1-.183-.461.748.748,0,0,1,.287-.589,1.807,1.807,0,0,1,.561-.34v-.056a1.572,1.572,0,0,1-.639-.481,1.2,1.2,0,0,1-.243-.757,1.164,1.164,0,0,1,.426-.925,1.715,1.715,0,0,1,1.153-.365,2.107,2.107,0,0,1,.5.056,1.932,1.932,0,0,1,.354.116h1.027v.437h-.632a1.089,1.089,0,0,1,.234.364,1.237,1.237,0,0,1,.082.453,1.046,1.046,0,0,1-.7,1.053,2.372,2.372,0,0,1-.909.152c-.079,0-.13,0-.154,0a1.015,1.015,0,0,0-.109,0,.515.515,0,0,0-.24.128.344.344,0,0,0-.13.268.268.268,0,0,0,.065.192.3.3,0,0,0,.179.084c.038.005.119.01.244.014s.221.006.289.006l.506.008a1.963,1.963,0,0,1,.723.132.864.864,0,0,1,.559.862,1.108,1.108,0,0,1-.837,1.1,3.375,3.375,0,0,1-1.111.156,3.506,3.506,0,0,1-.944-.112q-.654-.189-.654-.641a.609.609,0,0,1,.139-.362Zm.8.707a1.544,1.544,0,0,0,.744.145,2.943,2.943,0,0,0,.715-.072q.529-.137.529-.5a.365.365,0,0,0-.15-.319,1,1,0,0,0-.546-.107h-1.279a1.17,1.17,0,0,0-.175.177.476.476,0,0,0-.1.281.443.443,0,0,0,.257.4Zm.272-3.144a.441.441,0,0,0,.438.36.4.4,0,0,0,.4-.27,2.189,2.189,0,0,0,.11-.791,2.057,2.057,0,0,0-.116-.805.405.405,0,0,0-.4-.252.4.4,0,0,0-.411.271,2.321,2.321,0,0,0-.1.787,2.39,2.39,0,0,0,.076.7Z" transform="translate(-268.872 -536.413)" fill="#2f2f2f"/>
    <path id="Path_11964" data-name="Path 11964" d="M384.51,646.286v.2a2.132,2.132,0,0,0-.542.074q-.124.05-.124.251a.684.684,0,0,0,.01.118.577.577,0,0,0,.036.118l1.236,3.035h-.012l1.021-2.778c.023-.062.043-.125.061-.189a.954.954,0,0,0,.046-.253c0-.155-.043-.252-.131-.291a1.879,1.879,0,0,0-.534-.086v-.2h1.659v.2a.7.7,0,0,0-.428.174,1.427,1.427,0,0,0-.276.5l-1.777,4.823h-.205l-2.005-4.915a1.363,1.363,0,0,0-.249-.427.616.616,0,0,0-.4-.154v-.2Z" transform="translate(-321.175 -520.966)" fill="#2f2f2f"/>
    <path id="Path_11965" data-name="Path 11965" d="M433.5,665.631a6.7,6.7,0,0,1,1.587-.654v-.6a.826.826,0,0,0-.147-.539.65.65,0,0,0-.519-.174.657.657,0,0,0-.345.082.239.239,0,0,0-.135.206.193.193,0,0,0,.015.08.3.3,0,0,0,.046.068l.045.056a.594.594,0,0,1,.086.15.47.47,0,0,1,.033.174.448.448,0,0,1-.146.358.507.507,0,0,1-.341.126.559.559,0,0,1-.383-.139.512.512,0,0,1-.158-.4.851.851,0,0,1,.422-.747,1.863,1.863,0,0,1,1.039-.276,2.112,2.112,0,0,1,1.107.269,1.081,1.081,0,0,1,.441,1v1.987a.255.255,0,0,0,.044.15.123.123,0,0,0,.1.062.179.179,0,0,0,.082-.018.53.53,0,0,0,.112-.1l.118.172a1.269,1.269,0,0,1-.506.393.954.954,0,0,1-.369.072.592.592,0,0,1-.506-.212.835.835,0,0,1-.133-.357,1.821,1.821,0,0,1-.731.482,1.44,1.44,0,0,1-.487.088.958.958,0,0,1-.6-.215.79.79,0,0,1-.278-.668,1,1,0,0,1,.506-.879Zm1.358,1.056a1.535,1.535,0,0,0,.217-.225v-1.2a1.593,1.593,0,0,0-.548.253.892.892,0,0,0-.4.747.62.62,0,0,0,.116.407.337.337,0,0,0,.261.139.584.584,0,0,0,.354-.121Z" transform="translate(-367.289 -536.413)" fill="#2f2f2f"/>
    <path id="Path_11966" data-name="Path 11966" d="M472.192,651.633a.633.633,0,0,0,.292-.139.532.532,0,0,0,.085-.358v-4.178a.512.512,0,0,0-.08-.344.627.627,0,0,0-.3-.133v-.2h1.477v4.85a.528.528,0,0,0,.084.357.668.668,0,0,0,.3.14v.2h-1.857v-.2Z" transform="translate(-402.661 -520.966)" fill="#2f2f2f"/>
    <path id="Path_11967" data-name="Path 11967" d="M495.855,664.391v2.784a.869.869,0,0,0,.057.365.392.392,0,0,0,.392.2.633.633,0,0,0,.365-.124,1.738,1.738,0,0,0,.259-.228v-2.327a.524.524,0,0,0-.1-.361.574.574,0,0,0-.39-.115v-.2h1.552v2.956a.516.516,0,0,0,.091.352.564.564,0,0,0,.358.121v.188q-.723.073-.912.106a5.121,5.121,0,0,0-.6.17v-.541a2.842,2.842,0,0,1-.461.356,1.316,1.316,0,0,1-.666.184,1.123,1.123,0,0,1-.7-.252,1.073,1.073,0,0,1-.326-.9v-2.071a.511.511,0,0,0-.08-.344.649.649,0,0,0-.308-.133v-.2Z" transform="translate(-422.69 -537.304)" fill="#2f2f2f"/>
    <path id="Path_11968" data-name="Path 11968" d="M539.755,663.926a1.507,1.507,0,0,1,1.153-.523,1.34,1.34,0,0,1,.724.213,1.4,1.4,0,0,1,.522.588,2.353,2.353,0,0,1,.19.737,2.807,2.807,0,0,1,.027.325h-1.99a3.112,3.112,0,0,0,.153.853.834.834,0,0,0,.8.677.858.858,0,0,0,.519-.18,2.416,2.416,0,0,0,.37-.365l.179.116a2.13,2.13,0,0,1-.838.869,1.534,1.534,0,0,1-1.787-.32,2.015,2.015,0,0,1-.5-1.522,2.1,2.1,0,0,1,.479-1.468Zm1.657,1.035a3.634,3.634,0,0,0-.107-1.013.388.388,0,0,0-.4-.289.422.422,0,0,0-.418.333,3.427,3.427,0,0,0-.128.969Z" transform="translate(-463.201 -536.413)" fill="#2f2f2f"/>
    <path id="Path_11969" data-name="Path 11969" d="M67.306,462.452H73.13l-7.422,14.172H55.324l11.982-14.172Z" transform="translate(-26.463 -355.067)" fill="#2f2f2f"/>
    <path id="Path_11970" data-name="Path 11970" d="M246.53,462.452l1.747,4.324H245.14l2.255,9.847h-10l2.255-9.847H236.5l1.747-4.324h8.279Z" transform="translate(-189.967 -355.067)" fill="#2f2f2f"/>
    <path id="Path_11971" data-name="Path 11971" d="M364,466.768c-.289,0-.522.109-.522.387a.465.465,0,0,0,.065.234l2.236,3.169a1.319,1.319,0,0,0,1.175.682h4.292l4.643,5.373H364.907a1.5,1.5,0,0,1-.179,0,2.39,2.39,0,0,1-1.989-1.348l-5.876-11.331a1.309,1.309,0,0,1-.025-.254,1.194,1.194,0,0,1,1.151-1.235,1.067,1.067,0,0,1,.111,0h5.84l3.681,4.324Z" transform="translate(-298.562 -355.058)" fill="#2f2f2f"/>
    <path id="Path_11972" data-name="Path 11972" d="M64.812,81.527,39.153,132.862l23.061-28.339,2.6-23Z" transform="translate(-11.87 -11.305)" fill="#2f2f2f"/>
    <path id="Path_11973" data-name="Path 11973" d="M303.95,81.527l25.659,51.335-23.061-28.339-2.6-23Z" transform="translate(-250.833 -11.305)" fill="#2f2f2f"/>
  </g>
</svg>
